<svg width="193" height="119" viewBox="0 0 193 119" fill="none" xmlns="http://www.w3.org/2000/svg">
<path d="M17.3714 57.8182V68H15.7308L10.9332 61.0646H10.8487V68H9.00426V57.8182H10.6548L15.4474 64.7585H15.5369V57.8182H17.3714ZM22.6326 68.1491C21.8869 68.1491 21.2406 67.9851 20.6937 67.657C20.1468 67.3288 19.7226 66.8698 19.421 66.2798C19.1227 65.6899 18.9735 65.0005 18.9735 64.2116C18.9735 63.4228 19.1227 62.7318 19.421 62.1385C19.7226 61.5452 20.1468 61.0845 20.6937 60.7564C21.2406 60.4283 21.8869 60.2642 22.6326 60.2642C23.3784 60.2642 24.0247 60.4283 24.5716 60.7564C25.1184 61.0845 25.541 61.5452 25.8393 62.1385C26.1409 62.7318 26.2917 63.4228 26.2917 64.2116C26.2917 65.0005 26.1409 65.6899 25.8393 66.2798C25.541 66.8698 25.1184 67.3288 24.5716 67.657C24.0247 67.9851 23.3784 68.1491 22.6326 68.1491ZM22.6426 66.7074C23.0469 66.7074 23.385 66.5964 23.6568 66.3743C23.9286 66.1489 24.1307 65.8473 24.2633 65.4695C24.3992 65.0916 24.4672 64.6707 24.4672 64.2067C24.4672 63.7393 24.3992 63.3168 24.2633 62.9389C24.1307 62.5578 23.9286 62.2545 23.6568 62.0291C23.385 61.8037 23.0469 61.6911 22.6426 61.6911C22.2283 61.6911 21.8836 61.8037 21.6085 62.0291C21.3367 62.2545 21.1329 62.5578 20.997 62.9389C20.8644 63.3168 20.7981 63.7393 20.7981 64.2067C20.7981 64.6707 20.8644 65.0916 20.997 65.4695C21.1329 65.8473 21.3367 66.1489 21.6085 66.3743C21.8836 66.5964 22.2283 66.7074 22.6426 66.7074ZM34.6229 68.1491C33.8606 68.1491 33.206 67.9818 32.6591 67.647C32.1155 67.3123 31.6963 66.8499 31.4013 66.2599C31.1096 65.6667 30.9638 64.9839 30.9638 64.2116C30.9638 63.4361 31.1129 62.7517 31.4112 62.1584C31.7095 61.5618 32.1304 61.0978 32.674 60.7663C33.2209 60.4316 33.8672 60.2642 34.6129 60.2642C35.2327 60.2642 35.7813 60.3786 36.2585 60.6072C36.7391 60.8326 37.1219 61.1525 37.407 61.5668C37.692 61.9777 37.8544 62.4583 37.8942 63.0085H36.174C36.1044 62.6406 35.9387 62.334 35.6768 62.0888C35.4183 61.8402 35.072 61.7159 34.6378 61.7159C34.2699 61.7159 33.9467 61.8153 33.6683 62.0142C33.3899 62.2098 33.1728 62.4915 33.017 62.8594C32.8646 63.2273 32.7884 63.6681 32.7884 64.1818C32.7884 64.7022 32.8646 65.1496 33.017 65.5241C33.1695 65.8954 33.3833 66.1821 33.6584 66.3842C33.9368 66.5831 34.2633 66.6825 34.6378 66.6825C34.9029 66.6825 35.1399 66.6328 35.3487 66.5334C35.5608 66.4306 35.7382 66.2831 35.8807 66.0909C36.0232 65.8987 36.121 65.665 36.174 65.3899H37.8942C37.8511 65.9302 37.692 66.4091 37.4169 66.8267C37.1418 67.241 36.7673 67.5658 36.2933 67.8011C35.8194 68.0331 35.2625 68.1491 34.6229 68.1491ZM44.2392 64.7884V60.3636H46.0389V68H44.2939V66.6428H44.2143C44.042 67.0703 43.7586 67.42 43.3642 67.6918C42.9731 67.9635 42.4908 68.0994 41.9174 68.0994C41.417 68.0994 40.9745 67.9884 40.59 67.7663C40.2089 67.541 39.9106 67.2145 39.6951 66.7869C39.4797 66.3561 39.372 65.8357 39.372 65.2259V60.3636H41.1717V64.9474C41.1717 65.4313 41.3043 65.8158 41.5694 66.1009C41.8346 66.3859 42.1826 66.5284 42.6135 66.5284C42.8786 66.5284 43.1355 66.4638 43.3841 66.3345C43.6326 66.2053 43.8365 66.013 43.9956 65.7578C44.158 65.4993 44.2392 65.1761 44.2392 64.7884ZM53.9251 62.3821L52.2844 62.5611C52.238 62.3954 52.1568 62.2396 52.0408 62.0938C51.9281 61.9479 51.7757 61.8303 51.5835 61.7408C51.3912 61.6513 51.1559 61.6065 50.8775 61.6065C50.503 61.6065 50.1881 61.6877 49.9329 61.8501C49.681 62.0125 49.5567 62.223 49.56 62.4815C49.5567 62.7036 49.6379 62.8842 49.8036 63.0234C49.9727 63.1626 50.2511 63.277 50.6388 63.3665L51.9414 63.6449C52.6639 63.8007 53.2009 64.0476 53.5522 64.3857C53.9068 64.7237 54.0858 65.1662 54.0891 65.7131C54.0858 66.1937 53.945 66.6179 53.6665 66.9858C53.3915 67.3504 53.0086 67.6354 52.5181 67.8409C52.0276 68.0464 51.4641 68.1491 50.8278 68.1491C49.8931 68.1491 49.1407 67.9536 48.5707 67.5625C48.0006 67.1681 47.6609 66.6196 47.5515 65.9169L49.3065 65.7479C49.386 66.0926 49.555 66.3527 49.8136 66.5284C50.0721 66.7041 50.4085 66.7919 50.8228 66.7919C51.2504 66.7919 51.5934 66.7041 51.8519 66.5284C52.1138 66.3527 52.2447 66.1357 52.2447 65.8771C52.2447 65.6584 52.1602 65.4777 51.9911 65.3352C51.8254 65.1927 51.5669 65.0833 51.2156 65.0071L49.913 64.7337C49.1805 64.5812 48.6386 64.3243 48.2873 63.9631C47.936 63.5985 47.762 63.1378 47.7653 62.581C47.762 62.1103 47.8896 61.7027 48.1481 61.358C48.4099 61.0099 48.7728 60.7415 49.2369 60.5526C49.7042 60.3603 50.2428 60.2642 50.8526 60.2642C51.7475 60.2642 52.4518 60.4548 52.9656 60.8359C53.4826 61.2171 53.8024 61.7325 53.9251 62.3821ZM59.3864 60.3636V61.7557H54.9964V60.3636H59.3864ZM56.0803 58.5341H57.88V65.7031C57.88 65.9451 57.9164 66.1307 57.9893 66.2599C58.0656 66.3859 58.165 66.4721 58.2876 66.5185C58.4103 66.5649 58.5462 66.5881 58.6953 66.5881C58.808 66.5881 58.9107 66.5798 59.0036 66.5632C59.0997 66.5466 59.1726 66.5317 59.2223 66.5185L59.5256 67.9254C59.4295 67.9586 59.2919 67.995 59.1129 68.0348C58.9373 68.0746 58.7218 68.0978 58.4666 68.1044C58.0159 68.1177 57.6098 68.0497 57.2486 67.9006C56.8873 67.7481 56.6006 67.5128 56.3885 67.1946C56.1797 66.8764 56.0769 66.4787 56.0803 66.0014V58.5341ZM64.1404 68.1491C63.3947 68.1491 62.7484 67.9851 62.2015 67.657C61.6547 67.3288 61.2304 66.8698 60.9288 66.2798C60.6305 65.6899 60.4814 65.0005 60.4814 64.2116C60.4814 63.4228 60.6305 62.7318 60.9288 62.1385C61.2304 61.5452 61.6547 61.0845 62.2015 60.7564C62.7484 60.4283 63.3947 60.2642 64.1404 60.2642C64.8862 60.2642 65.5325 60.4283 66.0794 60.7564C66.6262 61.0845 67.0488 61.5452 67.3471 62.1385C67.6487 62.7318 67.7995 63.4228 67.7995 64.2116C67.7995 65.0005 67.6487 65.6899 67.3471 66.2798C67.0488 66.8698 66.6262 67.3288 66.0794 67.657C65.5325 67.9851 64.8862 68.1491 64.1404 68.1491ZM64.1504 66.7074C64.5547 66.7074 64.8928 66.5964 65.1646 66.3743C65.4364 66.1489 65.6386 65.8473 65.7711 65.4695C65.907 65.0916 65.975 64.6707 65.975 64.2067C65.975 63.7393 65.907 63.3168 65.7711 62.9389C65.6386 62.5578 65.4364 62.2545 65.1646 62.0291C64.8928 61.8037 64.5547 61.6911 64.1504 61.6911C63.7361 61.6911 63.3914 61.8037 63.1163 62.0291C62.8445 62.2545 62.6407 62.5578 62.5048 62.9389C62.3722 63.3168 62.3059 63.7393 62.3059 64.2067C62.3059 64.6707 62.3722 65.0916 62.5048 65.4695C62.6407 65.8473 62.8445 66.1489 63.1163 66.3743C63.3914 66.5964 63.7361 66.7074 64.1504 66.7074ZM69.3271 68V60.3636H71.0472V61.6612H71.1367C71.2958 61.2237 71.5593 60.8823 71.9272 60.6371C72.2951 60.3885 72.7343 60.2642 73.2447 60.2642C73.7617 60.2642 74.1976 60.3902 74.5522 60.642C74.9102 60.8906 75.1621 61.2304 75.3079 61.6612H75.3874C75.5565 61.237 75.8415 60.8989 76.2425 60.647C76.6469 60.3918 77.1258 60.2642 77.6793 60.2642C78.382 60.2642 78.9554 60.4863 79.3995 60.9304C79.8436 61.3745 80.0657 62.0225 80.0657 62.8743V68H78.261V63.1527C78.261 62.6787 78.1351 62.3324 77.8832 62.1136C77.6313 61.8916 77.323 61.7805 76.9585 61.7805C76.5243 61.7805 76.1845 61.9164 75.9393 62.1882C75.6973 62.4567 75.5763 62.8063 75.5763 63.2372V68H73.8114V63.0781C73.8114 62.6837 73.6921 62.3688 73.4535 62.1335C73.2182 61.8982 72.9099 61.7805 72.5288 61.7805C72.2702 61.7805 72.0349 61.8468 71.8228 61.9794C71.6107 62.1087 71.4416 62.2926 71.3157 62.5312C71.1897 62.7666 71.1268 63.0417 71.1268 63.3565V68H69.3271ZM88.6951 68.1491C87.9328 68.1491 87.2782 67.9818 86.7314 67.647C86.1878 67.3123 85.7685 66.8499 85.4735 66.2599C85.1819 65.6667 85.036 64.9839 85.036 64.2116C85.036 63.4361 85.1852 62.7517 85.4835 62.1584C85.7818 61.5618 86.2027 61.0978 86.7463 60.7663C87.2931 60.4316 87.9395 60.2642 88.6852 60.2642C89.305 60.2642 89.8535 60.3786 90.3308 60.6072C90.8114 60.8326 91.1942 61.1525 91.4792 61.5668C91.7643 61.9777 91.9267 62.4583 91.9664 63.0085H90.2463C90.1767 62.6406 90.0109 62.334 89.7491 62.0888C89.4906 61.8402 89.1442 61.7159 88.71 61.7159C88.3422 61.7159 88.019 61.8153 87.7406 62.0142C87.4622 62.2098 87.2451 62.4915 87.0893 62.8594C86.9368 63.2273 86.8606 63.6681 86.8606 64.1818C86.8606 64.7022 86.9368 65.1496 87.0893 65.5241C87.2418 65.8954 87.4556 66.1821 87.7306 66.3842C88.0091 66.5831 88.3355 66.6825 88.71 66.6825C88.9752 66.6825 89.2122 66.6328 89.421 66.5334C89.6331 66.4306 89.8104 66.2831 89.9529 66.0909C90.0955 65.8987 90.1932 65.665 90.2463 65.3899H91.9664C91.9234 65.9302 91.7643 66.4091 91.4892 66.8267C91.2141 67.241 90.8395 67.5658 90.3656 67.8011C89.8916 68.0331 89.3348 68.1491 88.6951 68.1491ZM96.7752 68.1491C96.0295 68.1491 95.3832 67.9851 94.8363 67.657C94.2894 67.3288 93.8652 66.8698 93.5636 66.2798C93.2653 65.6899 93.1161 65.0005 93.1161 64.2116C93.1161 63.4228 93.2653 62.7318 93.5636 62.1385C93.8652 61.5452 94.2894 61.0845 94.8363 60.7564C95.3832 60.4283 96.0295 60.2642 96.7752 60.2642C97.521 60.2642 98.1673 60.4283 98.7141 60.7564C99.261 61.0845 99.6836 61.5452 99.9819 62.1385C100.283 62.7318 100.434 63.4228 100.434 64.2116C100.434 65.0005 100.283 65.6899 99.9819 66.2798C99.6836 66.8698 99.261 67.3288 98.7141 67.657C98.1673 67.9851 97.521 68.1491 96.7752 68.1491ZM96.7852 66.7074C97.1895 66.7074 97.5276 66.5964 97.7994 66.3743C98.0711 66.1489 98.2733 65.8473 98.4059 65.4695C98.5418 65.0916 98.6097 64.6707 98.6097 64.2067C98.6097 63.7393 98.5418 63.3168 98.4059 62.9389C98.2733 62.5578 98.0711 62.2545 97.7994 62.0291C97.5276 61.8037 97.1895 61.6911 96.7852 61.6911C96.3709 61.6911 96.0262 61.8037 95.7511 62.0291C95.4793 62.2545 95.2754 62.5578 95.1396 62.9389C95.007 63.3168 94.9407 63.7393 94.9407 64.2067C94.9407 64.6707 95.007 65.0916 95.1396 65.4695C95.2754 65.8473 95.4793 66.1489 95.7511 66.3743C96.0262 66.5964 96.3709 66.7074 96.7852 66.7074ZM101.962 68V60.3636H103.682V61.6612H103.771C103.931 61.2237 104.194 60.8823 104.562 60.6371C104.93 60.3885 105.369 60.2642 105.879 60.2642C106.396 60.2642 106.832 60.3902 107.187 60.642C107.545 60.8906 107.797 61.2304 107.943 61.6612H108.022C108.191 61.237 108.476 60.8989 108.877 60.647C109.282 60.3918 109.761 60.2642 110.314 60.2642C111.017 60.2642 111.59 60.4863 112.034 60.9304C112.478 61.3745 112.7 62.0225 112.7 62.8743V68H110.896V63.1527C110.896 62.6787 110.77 62.3324 110.518 62.1136C110.266 61.8916 109.958 61.7805 109.593 61.7805C109.159 61.7805 108.819 61.9164 108.574 62.1882C108.332 62.4567 108.211 62.8063 108.211 63.2372V68H106.446V63.0781C106.446 62.6837 106.327 62.3688 106.088 62.1335C105.853 61.8982 105.545 61.7805 105.164 61.7805C104.905 61.7805 104.67 61.8468 104.458 61.9794C104.245 62.1087 104.076 62.2926 103.95 62.5312C103.825 62.7666 103.762 63.0417 103.762 63.3565V68H101.962ZM114.526 68V60.3636H116.246V61.6612H116.336C116.495 61.2237 116.759 60.8823 117.126 60.6371C117.494 60.3885 117.933 60.2642 118.444 60.2642C118.961 60.2642 119.397 60.3902 119.751 60.642C120.109 60.8906 120.361 61.2304 120.507 61.6612H120.587C120.756 61.237 121.041 60.8989 121.442 60.647C121.846 60.3918 122.325 60.2642 122.879 60.2642C123.581 60.2642 124.155 60.4863 124.599 60.9304C125.043 61.3745 125.265 62.0225 125.265 62.8743V68H123.46V63.1527C123.46 62.6787 123.334 62.3324 123.082 62.1136C122.83 61.8916 122.522 61.7805 122.158 61.7805C121.723 61.7805 121.384 61.9164 121.138 62.1882C120.897 62.4567 120.776 62.8063 120.776 63.2372V68H119.011V63.0781C119.011 62.6837 118.891 62.3688 118.653 62.1335C118.417 61.8982 118.109 61.7805 117.728 61.7805C117.469 61.7805 117.234 61.8468 117.022 61.9794C116.81 62.1087 116.641 62.2926 116.515 62.5312C116.389 62.7666 116.326 63.0417 116.326 63.3565V68H114.526ZM129.288 68.1541C128.804 68.1541 128.368 68.0679 127.981 67.8956C127.596 67.7199 127.291 67.4614 127.066 67.12C126.844 66.7786 126.733 66.3577 126.733 65.8572C126.733 65.4264 126.812 65.0701 126.971 64.7884C127.131 64.5066 127.348 64.2812 127.623 64.1122C127.898 63.9432 128.208 63.8156 128.552 63.7294C128.9 63.6399 129.26 63.5753 129.631 63.5355C130.079 63.4891 130.442 63.4477 130.72 63.4112C130.998 63.3714 131.201 63.3118 131.327 63.2322C131.456 63.1494 131.52 63.0218 131.52 62.8494V62.8196C131.52 62.4451 131.409 62.1551 131.187 61.9496C130.965 61.7441 130.645 61.6413 130.228 61.6413C129.787 61.6413 129.437 61.7375 129.179 61.9297C128.924 62.1219 128.751 62.349 128.662 62.6108L126.981 62.3722C127.114 61.9081 127.333 61.5204 127.638 61.2088C127.943 60.8939 128.315 60.6586 128.756 60.5028C129.197 60.3438 129.684 60.2642 130.218 60.2642C130.586 60.2642 130.952 60.3073 131.317 60.3935C131.681 60.4796 132.014 60.6222 132.316 60.821C132.617 61.0166 132.859 61.2834 133.042 61.6214C133.227 61.9595 133.32 62.3821 133.32 62.8892V68H131.59V66.951H131.53C131.421 67.1631 131.267 67.362 131.068 67.5476C130.872 67.7299 130.626 67.8774 130.327 67.9901C130.032 68.0994 129.686 68.1541 129.288 68.1541ZM129.756 66.8317C130.117 66.8317 130.43 66.7604 130.695 66.6179C130.96 66.4721 131.164 66.2798 131.307 66.0412C131.452 65.8026 131.525 65.5424 131.525 65.2607V64.3608C131.469 64.4072 131.373 64.4503 131.237 64.4901C131.104 64.5298 130.955 64.5646 130.79 64.5945C130.624 64.6243 130.46 64.6508 130.297 64.674C130.135 64.6972 129.994 64.7171 129.875 64.7337C129.606 64.7701 129.366 64.8298 129.154 64.9126C128.942 64.9955 128.774 65.1115 128.652 65.2607C128.529 65.4065 128.468 65.5954 128.468 65.8274C128.468 66.1589 128.589 66.4091 128.831 66.5781C129.073 66.7472 129.381 66.8317 129.756 66.8317ZM136.93 63.5256V68H135.13V60.3636H136.85V61.6612H136.939C137.115 61.2337 137.395 60.8939 137.78 60.642C138.167 60.3902 138.646 60.2642 139.216 60.2642C139.743 60.2642 140.202 60.3769 140.594 60.6023C140.988 60.8277 141.293 61.1541 141.508 61.5817C141.727 62.0092 141.835 62.5279 141.831 63.1378V68H140.032V63.4162C140.032 62.9058 139.899 62.5064 139.634 62.218C139.372 61.9297 139.009 61.7855 138.545 61.7855C138.23 61.7855 137.95 61.8551 137.705 61.9943C137.463 62.1302 137.273 62.3274 137.133 62.5859C136.997 62.8445 136.93 63.1577 136.93 63.5256ZM146.495 68.1342C145.895 68.1342 145.358 67.9801 144.884 67.6719C144.41 67.3636 144.036 66.9162 143.76 66.3295C143.485 65.7429 143.348 65.0303 143.348 64.1918C143.348 63.3433 143.487 62.6274 143.765 62.044C144.047 61.4574 144.427 61.0149 144.904 60.7166C145.381 60.415 145.913 60.2642 146.5 60.2642C146.947 60.2642 147.315 60.3404 147.604 60.4929C147.892 60.642 148.121 60.8227 148.29 61.0348C148.459 61.2436 148.59 61.4408 148.682 61.6264H148.757V57.8182H150.562V68H148.792V66.7969H148.682C148.59 66.9825 148.455 67.1797 148.28 67.3885C148.104 67.594 147.872 67.7696 147.584 67.9155C147.295 68.0613 146.932 68.1342 146.495 68.1342ZM146.997 66.6577C147.378 66.6577 147.703 66.5549 147.971 66.3494C148.24 66.1406 148.444 65.8506 148.583 65.4794C148.722 65.1082 148.792 64.6757 148.792 64.1818C148.792 63.688 148.722 63.2588 148.583 62.8942C148.447 62.5296 148.245 62.2462 147.976 62.044C147.711 61.8419 147.385 61.7408 146.997 61.7408C146.596 61.7408 146.261 61.8452 145.993 62.054C145.724 62.2628 145.522 62.5511 145.386 62.919C145.25 63.2869 145.182 63.7079 145.182 64.1818C145.182 64.6591 145.25 65.085 145.386 65.4595C145.525 65.8307 145.729 66.1241 145.998 66.3395C146.269 66.5516 146.603 66.6577 146.997 66.6577ZM158.515 62.3821L156.874 62.5611C156.828 62.3954 156.747 62.2396 156.631 62.0938C156.518 61.9479 156.366 61.8303 156.173 61.7408C155.981 61.6513 155.746 61.6065 155.467 61.6065C155.093 61.6065 154.778 61.6877 154.523 61.8501C154.271 62.0125 154.147 62.223 154.15 62.4815C154.147 62.7036 154.228 62.8842 154.393 63.0234C154.563 63.1626 154.841 63.277 155.229 63.3665L156.531 63.6449C157.254 63.8007 157.791 64.0476 158.142 64.3857C158.497 64.7237 158.676 65.1662 158.679 65.7131C158.676 66.1937 158.535 66.6179 158.256 66.9858C157.981 67.3504 157.598 67.6354 157.108 67.8409C156.617 68.0464 156.054 68.1491 155.418 68.1491C154.483 68.1491 153.731 67.9536 153.161 67.5625C152.59 67.1681 152.251 66.6196 152.141 65.9169L153.896 65.7479C153.976 66.0926 154.145 66.3527 154.403 66.5284C154.662 66.7041 154.998 66.7919 155.413 66.7919C155.84 66.7919 156.183 66.7041 156.442 66.5284C156.704 66.3527 156.835 66.1357 156.835 65.8771C156.835 65.6584 156.75 65.4777 156.581 65.3352C156.415 65.1927 156.157 65.0833 155.805 65.0071L154.503 64.7337C153.77 64.5812 153.228 64.3243 152.877 63.9631C152.526 63.5985 152.352 63.1378 152.355 62.581C152.352 62.1103 152.479 61.7027 152.738 61.358C153 61.0099 153.363 60.7415 153.827 60.5526C154.294 60.3603 154.833 60.2642 155.442 60.2642C156.337 60.2642 157.042 60.4548 157.555 60.8359C158.072 61.2171 158.392 61.7325 158.515 62.3821ZM164.754 70.8636C164.509 70.8636 164.282 70.8438 164.073 70.804C163.868 70.7675 163.704 70.7244 163.581 70.6747L163.999 69.2727C164.26 69.349 164.494 69.3854 164.7 69.3821C164.905 69.3788 165.086 69.3142 165.241 69.1882C165.401 69.0656 165.535 68.8601 165.644 68.5717L165.798 68.1591L163.029 60.3636H164.938L166.698 66.1307H166.778L168.543 60.3636H170.457L167.399 68.9247C167.257 69.3291 167.068 69.6754 166.832 69.9638C166.597 70.2554 166.309 70.4775 165.967 70.63C165.629 70.7857 165.225 70.8636 164.754 70.8636ZM174.823 68.1491C174.057 68.1491 173.396 67.9901 172.839 67.6719C172.286 67.3504 171.86 66.8963 171.562 66.3097C171.263 65.7197 171.114 65.0253 171.114 64.2266C171.114 63.4411 171.263 62.7517 171.562 62.1584C171.863 61.5618 172.284 61.0978 172.824 60.7663C173.365 60.4316 173.999 60.2642 174.729 60.2642C175.199 60.2642 175.643 60.3404 176.061 60.4929C176.482 60.642 176.853 60.8741 177.175 61.1889C177.499 61.5038 177.755 61.9048 177.94 62.392C178.126 62.8759 178.219 63.4527 178.219 64.1222V64.674H171.959V63.4609H176.493C176.49 63.1162 176.416 62.8097 176.27 62.5412C176.124 62.2694 175.92 62.0556 175.658 61.8999C175.4 61.7441 175.098 61.6662 174.753 61.6662C174.385 61.6662 174.062 61.7557 173.784 61.9347C173.506 62.1103 173.288 62.3423 173.133 62.6307C172.98 62.9157 172.902 63.2289 172.899 63.5703V64.6293C172.899 65.0734 172.98 65.4545 173.143 65.7727C173.305 66.0876 173.532 66.3295 173.824 66.4986C174.115 66.6643 174.457 66.7472 174.848 66.7472C175.11 66.7472 175.347 66.7107 175.559 66.6378C175.771 66.5616 175.955 66.4505 176.111 66.3047C176.266 66.1589 176.384 65.9782 176.464 65.7628L178.144 65.9517C178.038 66.3958 177.836 66.7836 177.537 67.1151C177.242 67.4432 176.865 67.6984 176.404 67.8807C175.943 68.0597 175.416 68.1491 174.823 68.1491ZM183.554 60.3636V61.7557H179.164V60.3636H183.554ZM180.248 58.5341H182.048V65.7031C182.048 65.9451 182.084 66.1307 182.157 66.2599C182.234 66.3859 182.333 66.4721 182.456 66.5185C182.578 66.5649 182.714 66.5881 182.863 66.5881C182.976 66.5881 183.079 66.5798 183.172 66.5632C183.268 66.5466 183.341 66.5317 183.39 66.5185L183.694 67.9254C183.597 67.9586 183.46 67.995 183.281 68.0348C183.105 68.0746 182.89 68.0978 182.635 68.1044C182.184 68.1177 181.778 68.0497 181.417 67.9006C181.055 67.7481 180.769 67.5128 180.556 67.1946C180.348 66.8764 180.245 66.4787 180.248 66.0014V58.5341Z" fill="#7D7C78"/>
<path d="M22.8117 93H21.181L24.8451 82.8182H26.6199L30.284 93H28.6533L25.7748 84.6676H25.6952L22.8117 93ZM23.0851 89.0128H28.3749V90.3054H23.0851V89.0128ZM33.1215 82.8182V93H31.635V82.8182H33.1215ZM36.6079 82.8182V93H35.1214V82.8182H36.6079ZM45.5294 93.1541C44.7903 93.1541 44.1539 92.9867 43.6203 92.652C43.09 92.3139 42.6823 91.8482 42.3973 91.255C42.1122 90.6617 41.9697 89.9822 41.9697 89.2166C41.9697 88.4411 42.1156 87.7566 42.4072 87.1634C42.6989 86.5668 43.1099 86.1011 43.6402 85.7663C44.1705 85.4316 44.7952 85.2642 45.5145 85.2642C46.0945 85.2642 46.6115 85.3719 47.0656 85.5874C47.5197 85.7995 47.8859 86.0978 48.1643 86.4822C48.4461 86.8667 48.6134 87.3158 48.6665 87.8295H47.2197C47.1402 87.4716 46.9579 87.1634 46.6729 86.9048C46.3911 86.6463 46.0133 86.517 45.5393 86.517C45.125 86.517 44.7621 86.6264 44.4506 86.8452C44.1423 87.0606 43.902 87.3688 43.7297 87.7699C43.5573 88.1676 43.4711 88.6383 43.4711 89.1818C43.4711 89.7386 43.5557 90.2192 43.7247 90.6236C43.8937 91.0279 44.1324 91.3411 44.4406 91.5632C44.7522 91.7853 45.1184 91.8963 45.5393 91.8963C45.8211 91.8963 46.0763 91.8449 46.305 91.7422C46.537 91.6361 46.7309 91.4853 46.8866 91.2898C47.0457 91.0942 47.1568 90.8589 47.2197 90.5838H48.6665C48.6134 91.0777 48.4527 91.5185 48.1842 91.9062C47.9157 92.294 47.5561 92.599 47.1054 92.821C46.6579 93.0431 46.1326 93.1541 45.5294 93.1541ZM55.0935 89.8331V85.3636H56.585V93H55.1233V91.6776H55.0438C54.8681 92.0852 54.5864 92.425 54.1986 92.6967C53.8141 92.9652 53.3352 93.0994 52.7618 93.0994C52.2713 93.0994 51.8371 92.9917 51.4593 92.7763C51.0847 92.5575 50.7897 92.2344 50.5743 91.8068C50.3622 91.3793 50.2561 90.8506 50.2561 90.2209V85.3636H51.7426V90.0419C51.7426 90.5623 51.8868 90.9766 52.1752 91.2848C52.4635 91.593 52.838 91.7472 53.2987 91.7472C53.5771 91.7472 53.8539 91.6776 54.129 91.5384C54.4074 91.3991 54.6378 91.1887 54.82 90.907C55.0057 90.6252 55.0968 90.2673 55.0935 89.8331ZM64.3046 87.228L62.9573 87.4666C62.901 87.2943 62.8115 87.1302 62.6888 86.9744C62.5695 86.8187 62.4071 86.6911 62.2016 86.5916C61.9961 86.4922 61.7393 86.4425 61.431 86.4425C61.0101 86.4425 60.6588 86.5369 60.377 86.7259C60.0953 86.9115 59.9545 87.1518 59.9545 87.4467C59.9545 87.7019 60.0489 87.9074 60.2378 88.0632C60.4268 88.219 60.7317 88.3466 61.1526 88.446L62.3657 88.7244C63.0683 88.8868 63.592 89.1371 63.9367 89.4751C64.2814 89.8132 64.4537 90.2524 64.4537 90.7926C64.4537 91.25 64.3212 91.6577 64.056 92.0156C63.7942 92.3703 63.4279 92.6487 62.9573 92.8509C62.49 93.053 61.9481 93.1541 61.3316 93.1541C60.4765 93.1541 59.7788 92.9718 59.2385 92.6072C58.6983 92.2393 58.3669 91.7173 58.2442 91.0412L59.681 90.8224C59.7705 91.197 59.9545 91.4804 60.2329 91.6726C60.5113 91.8615 60.8742 91.956 61.3216 91.956C61.8089 91.956 62.1983 91.8549 62.49 91.6527C62.7816 91.4472 62.9275 91.197 62.9275 90.902C62.9275 90.6634 62.838 90.4628 62.659 90.3004C62.4833 90.138 62.2132 90.0154 61.8486 89.9325L60.556 89.6491C59.8434 89.4867 59.3164 89.2282 58.9751 88.8736C58.637 88.5189 58.468 88.0698 58.468 87.5263C58.468 87.0755 58.5939 86.6811 58.8458 86.343C59.0977 86.005 59.4457 85.7415 59.8898 85.5526C60.334 85.3603 60.8427 85.2642 61.4161 85.2642C62.2414 85.2642 62.891 85.4432 63.365 85.8011C63.8389 86.1558 64.1521 86.6314 64.3046 87.228ZM69.6528 85.3636V86.5568H65.4816V85.3636H69.6528ZM66.6002 83.5341H68.0867V90.7578C68.0867 91.0462 68.1298 91.2633 68.216 91.4091C68.3022 91.5516 68.4132 91.6494 68.5491 91.7024C68.6883 91.7521 68.8391 91.777 69.0015 91.777C69.1208 91.777 69.2252 91.7687 69.3147 91.7521C69.4042 91.7356 69.4738 91.7223 69.5235 91.7124L69.792 92.9403C69.7058 92.9735 69.5832 93.0066 69.4241 93.0398C69.265 93.0762 69.0661 93.0961 68.8275 93.0994C68.4364 93.1061 68.0718 93.0365 67.7338 92.8906C67.3957 92.7448 67.1222 92.5194 66.9134 92.2145C66.7046 91.9096 66.6002 91.5268 66.6002 91.0661V83.5341ZM74.4317 93.1541C73.7158 93.1541 73.0911 92.9901 72.5574 92.6619C72.0238 92.3338 71.6095 91.8748 71.3145 91.2848C71.0196 90.6948 70.8721 90.0054 70.8721 89.2166C70.8721 88.4245 71.0196 87.7318 71.3145 87.1385C71.6095 86.5452 72.0238 86.0845 72.5574 85.7564C73.0911 85.4283 73.7158 85.2642 74.4317 85.2642C75.1476 85.2642 75.7724 85.4283 76.306 85.7564C76.8396 86.0845 77.2539 86.5452 77.5489 87.1385C77.8439 87.7318 77.9914 88.4245 77.9914 89.2166C77.9914 90.0054 77.8439 90.6948 77.5489 91.2848C77.2539 91.8748 76.8396 92.3338 76.306 92.6619C75.7724 92.9901 75.1476 93.1541 74.4317 93.1541ZM74.4367 91.9062C74.9007 91.9062 75.2852 91.7836 75.5901 91.5384C75.895 91.2931 76.1204 90.9666 76.2662 90.5589C76.4154 90.1513 76.49 89.7022 76.49 89.2116C76.49 88.7244 76.4154 88.277 76.2662 87.8693C76.1204 87.4583 75.895 87.1286 75.5901 86.88C75.2852 86.6314 74.9007 86.5071 74.4367 86.5071C73.9694 86.5071 73.5816 86.6314 73.2733 86.88C72.9684 87.1286 72.7414 87.4583 72.5922 87.8693C72.4464 88.277 72.3735 88.7244 72.3735 89.2116C72.3735 89.7022 72.4464 90.1513 72.5922 90.5589C72.7414 90.9666 72.9684 91.2931 73.2733 91.5384C73.5816 91.7836 73.9694 91.9062 74.4367 91.9062ZM79.6507 93V85.3636H81.0775V86.6065H81.172C81.3311 86.1856 81.5912 85.8575 81.9525 85.6222C82.3138 85.3835 82.7463 85.2642 83.2501 85.2642C83.7605 85.2642 84.1881 85.3835 84.5328 85.6222C84.8808 85.8608 85.1376 86.1889 85.3034 86.6065H85.3829C85.5652 86.1989 85.8552 85.8741 86.2529 85.6321C86.6507 85.3868 87.1246 85.2642 87.6748 85.2642C88.3675 85.2642 88.9326 85.4813 89.3701 85.9155C89.8109 86.3497 90.0313 87.0043 90.0313 87.8793V93H88.5448V88.0185C88.5448 87.5014 88.404 87.1269 88.1222 86.8949C87.8405 86.6629 87.5041 86.5469 87.113 86.5469C86.6291 86.5469 86.2529 86.696 85.9845 86.9943C85.716 87.2893 85.5818 87.6688 85.5818 88.1328V93H84.1002V87.924C84.1002 87.5097 83.971 87.1766 83.7124 86.9247C83.4539 86.6728 83.1175 86.5469 82.7032 86.5469C82.4215 86.5469 82.1613 86.6214 81.9227 86.7706C81.6874 86.9164 81.4968 87.1203 81.3509 87.3821C81.2084 87.6439 81.1372 87.9472 81.1372 88.2919V93H79.6507ZM98.9454 93.1541C98.2063 93.1541 97.5699 92.9867 97.0363 92.652C96.506 92.3139 96.0983 91.8482 95.8133 91.255C95.5283 90.6617 95.3857 89.9822 95.3857 89.2166C95.3857 88.4411 95.5316 87.7566 95.8232 87.1634C96.1149 86.5668 96.5259 86.1011 97.0562 85.7663C97.5865 85.4316 98.2113 85.2642 98.9305 85.2642C99.5105 85.2642 100.028 85.3719 100.482 85.5874C100.936 85.7995 101.302 86.0978 101.58 86.4822C101.862 86.8667 102.029 87.3158 102.082 87.8295H100.636C100.556 87.4716 100.374 87.1634 100.089 86.9048C99.8071 86.6463 99.4293 86.517 98.9553 86.517C98.541 86.517 98.1781 86.6264 97.8666 86.8452C97.5583 87.0606 97.318 87.3688 97.1457 87.7699C96.9733 88.1676 96.8872 88.6383 96.8872 89.1818C96.8872 89.7386 96.9717 90.2192 97.1407 90.6236C97.3097 91.0279 97.5484 91.3411 97.8566 91.5632C98.1682 91.7853 98.5344 91.8963 98.9553 91.8963C99.2371 91.8963 99.4923 91.8449 99.721 91.7422C99.953 91.6361 100.147 91.4853 100.303 91.2898C100.462 91.0942 100.573 90.8589 100.636 90.5838H102.082C102.029 91.0777 101.869 91.5185 101.6 91.9062C101.332 92.294 100.972 92.599 100.521 92.821C100.074 93.0431 99.5486 93.1541 98.9454 93.1541ZM106.889 93.1541C106.173 93.1541 105.548 92.9901 105.014 92.6619C104.481 92.3338 104.067 91.8748 103.772 91.2848C103.477 90.6948 103.329 90.0054 103.329 89.2166C103.329 88.4245 103.477 87.7318 103.772 87.1385C104.067 86.5452 104.481 86.0845 105.014 85.7564C105.548 85.4283 106.173 85.2642 106.889 85.2642C107.605 85.2642 108.229 85.4283 108.763 85.7564C109.297 86.0845 109.711 86.5452 110.006 87.1385C110.301 87.7318 110.448 88.4245 110.448 89.2166C110.448 90.0054 110.301 90.6948 110.006 91.2848C109.711 91.8748 109.297 92.3338 108.763 92.6619C108.229 92.9901 107.605 93.1541 106.889 93.1541ZM106.894 91.9062C107.358 91.9062 107.742 91.7836 108.047 91.5384C108.352 91.2931 108.577 90.9666 108.723 90.5589C108.872 90.1513 108.947 89.7022 108.947 89.2116C108.947 88.7244 108.872 88.277 108.723 87.8693C108.577 87.4583 108.352 87.1286 108.047 86.88C107.742 86.6314 107.358 86.5071 106.894 86.5071C106.426 86.5071 106.039 86.6314 105.73 86.88C105.425 87.1286 105.198 87.4583 105.049 87.8693C104.903 88.277 104.831 88.7244 104.831 89.2116C104.831 89.7022 104.903 90.1513 105.049 90.5589C105.198 90.9666 105.425 91.2931 105.73 91.5384C106.039 91.7836 106.426 91.9062 106.894 91.9062ZM112.108 93V85.3636H113.535V86.6065H113.629C113.788 86.1856 114.048 85.8575 114.41 85.6222C114.771 85.3835 115.203 85.2642 115.707 85.2642C116.218 85.2642 116.645 85.3835 116.99 85.6222C117.338 85.8608 117.595 86.1889 117.76 86.6065H117.84C118.022 86.1989 118.312 85.8741 118.71 85.6321C119.108 85.3868 119.582 85.2642 120.132 85.2642C120.825 85.2642 121.39 85.4813 121.827 85.9155C122.268 86.3497 122.488 87.0043 122.488 87.8793V93H121.002V88.0185C121.002 87.5014 120.861 87.1269 120.579 86.8949C120.298 86.6629 119.961 86.5469 119.57 86.5469C119.086 86.5469 118.71 86.696 118.441 86.9943C118.173 87.2893 118.039 87.6688 118.039 88.1328V93H116.557V87.924C116.557 87.5097 116.428 87.1766 116.169 86.9247C115.911 86.6728 115.575 86.5469 115.16 86.5469C114.879 86.5469 114.618 86.6214 114.38 86.7706C114.144 86.9164 113.954 87.1203 113.808 87.3821C113.665 87.6439 113.594 87.9472 113.594 88.2919V93H112.108ZM124.481 93V85.3636H125.908V86.6065H126.002C126.161 86.1856 126.421 85.8575 126.783 85.6222C127.144 85.3835 127.576 85.2642 128.08 85.2642C128.591 85.2642 129.018 85.3835 129.363 85.6222C129.711 85.8608 129.968 86.1889 130.133 86.6065H130.213C130.395 86.1989 130.685 85.8741 131.083 85.6321C131.481 85.3868 131.955 85.2642 132.505 85.2642C133.198 85.2642 133.763 85.4813 134.2 85.9155C134.641 86.3497 134.861 87.0043 134.861 87.8793V93H133.375V88.0185C133.375 87.5014 133.234 87.1269 132.952 86.8949C132.671 86.6629 132.334 86.5469 131.943 86.5469C131.459 86.5469 131.083 86.696 130.815 86.9943C130.546 87.2893 130.412 87.6688 130.412 88.1328V93H128.93V87.924C128.93 87.5097 128.801 87.1766 128.543 86.9247C128.284 86.6728 127.948 86.5469 127.533 86.5469C127.252 86.5469 126.991 86.6214 126.753 86.7706C126.517 86.9164 126.327 87.1203 126.181 87.3821C126.039 87.6439 125.967 87.9472 125.967 88.2919V93H124.481ZM139.076 93.169C138.592 93.169 138.155 93.0795 137.764 92.9006C137.372 92.7183 137.063 92.4548 136.834 92.1101C136.609 91.7654 136.496 91.3428 136.496 90.8423C136.496 90.4115 136.579 90.0568 136.744 89.7784C136.91 89.5 137.134 89.2796 137.416 89.1172C137.697 88.9548 138.012 88.8321 138.36 88.7493C138.708 88.6664 139.063 88.6035 139.424 88.5604C139.881 88.5073 140.253 88.4643 140.538 88.4311C140.823 88.3946 141.03 88.3366 141.159 88.2571C141.288 88.1776 141.353 88.0483 141.353 87.8693V87.8345C141.353 87.4003 141.23 87.0639 140.985 86.8253C140.743 86.5866 140.382 86.4673 139.901 86.4673C139.401 86.4673 139.006 86.5784 138.718 86.8004C138.433 87.0192 138.236 87.2628 138.127 87.5312L136.729 87.2131C136.895 86.7491 137.137 86.3745 137.455 86.0895C137.777 85.8011 138.146 85.5923 138.564 85.4631C138.982 85.3305 139.421 85.2642 139.881 85.2642C140.186 85.2642 140.51 85.3007 140.851 85.3736C141.196 85.4432 141.517 85.5724 141.815 85.7614C142.117 85.9503 142.364 86.2204 142.556 86.5717C142.748 86.9197 142.845 87.3722 142.845 87.929V93H141.393V91.956H141.333C141.237 92.1482 141.093 92.3371 140.901 92.5227C140.708 92.7083 140.461 92.8625 140.16 92.9851C139.858 93.1077 139.497 93.169 139.076 93.169ZM139.399 91.9759C139.81 91.9759 140.162 91.8946 140.453 91.7322C140.748 91.5698 140.972 91.3577 141.124 91.0959C141.28 90.8307 141.358 90.5473 141.358 90.2457V89.2614C141.305 89.3144 141.202 89.3641 141.05 89.4105C140.901 89.4536 140.73 89.4917 140.538 89.5249C140.345 89.5547 140.158 89.5829 139.976 89.6094C139.794 89.6326 139.641 89.6525 139.519 89.669C139.23 89.7055 138.967 89.7668 138.728 89.853C138.493 89.9392 138.304 90.0634 138.161 90.2259C138.022 90.3849 137.953 90.5971 137.953 90.8622C137.953 91.2301 138.088 91.5085 138.36 91.6974C138.632 91.883 138.978 91.9759 139.399 91.9759ZM146.311 88.4659V93H144.824V85.3636H146.251V86.6065H146.346C146.521 86.2022 146.797 85.8774 147.171 85.6321C147.549 85.3868 148.025 85.2642 148.598 85.2642C149.118 85.2642 149.574 85.3736 149.965 85.5923C150.356 85.8078 150.659 86.1293 150.875 86.5568C151.09 86.9844 151.198 87.513 151.198 88.1428V93H149.712V88.3217C149.712 87.7682 149.567 87.3357 149.279 87.0241C148.991 86.7093 148.595 86.5518 148.091 86.5518C147.746 86.5518 147.44 86.6264 147.171 86.7756C146.906 86.9247 146.695 87.1435 146.54 87.4318C146.387 87.7169 146.311 88.0616 146.311 88.4659ZM156.05 93.1491C155.434 93.1491 154.884 92.9917 154.4 92.6768C153.919 92.3587 153.541 91.9062 153.266 91.3196C152.994 90.7296 152.859 90.022 152.859 89.1967C152.859 88.3714 152.996 87.6655 153.271 87.0788C153.55 86.4922 153.931 86.0431 154.415 85.7315C154.899 85.42 155.447 85.2642 156.06 85.2642C156.534 85.2642 156.915 85.3438 157.204 85.5028C157.495 85.6586 157.721 85.8409 157.88 86.0497C158.042 86.2585 158.168 86.4425 158.258 86.6016H158.347V82.8182H159.834V93H158.382V91.8118H158.258C158.168 91.9742 158.039 92.1598 157.87 92.3686C157.704 92.5774 157.476 92.7597 157.184 92.9155C156.892 93.0713 156.514 93.1491 156.05 93.1491ZM156.378 91.8814C156.806 91.8814 157.167 91.7687 157.462 91.5433C157.761 91.3146 157.986 90.9981 158.138 90.5938C158.294 90.1894 158.372 89.7187 158.372 89.1818C158.372 88.6515 158.296 88.1875 158.143 87.7898C157.991 87.392 157.767 87.0821 157.472 86.8601C157.177 86.638 156.813 86.527 156.378 86.527C155.931 86.527 155.558 86.643 155.26 86.875C154.962 87.107 154.736 87.4235 154.584 87.8246C154.435 88.2256 154.36 88.678 154.36 89.1818C154.36 89.6922 154.436 90.1513 154.589 90.5589C154.741 90.9666 154.967 91.2898 155.265 91.5284C155.566 91.7637 155.938 91.8814 156.378 91.8814ZM167.678 87.228L166.33 87.4666C166.274 87.2943 166.185 87.1302 166.062 86.9744C165.943 86.8187 165.78 86.6911 165.575 86.5916C165.369 86.4922 165.112 86.4425 164.804 86.4425C164.383 86.4425 164.032 86.5369 163.75 86.7259C163.468 86.9115 163.328 87.1518 163.328 87.4467C163.328 87.7019 163.422 87.9074 163.611 88.0632C163.8 88.219 164.105 88.3466 164.526 88.446L165.739 88.7244C166.441 88.8868 166.965 89.1371 167.31 89.4751C167.654 89.8132 167.827 90.2524 167.827 90.7926C167.827 91.25 167.694 91.6577 167.429 92.0156C167.167 92.3703 166.801 92.6487 166.33 92.8509C165.863 93.053 165.321 93.1541 164.705 93.1541C163.85 93.1541 163.152 92.9718 162.612 92.6072C162.071 92.2393 161.74 91.7173 161.617 91.0412L163.054 90.8224C163.144 91.197 163.328 91.4804 163.606 91.6726C163.884 91.8615 164.247 91.956 164.695 91.956C165.182 91.956 165.571 91.8549 165.863 91.6527C166.155 91.4472 166.301 91.197 166.301 90.902C166.301 90.6634 166.211 90.4628 166.032 90.3004C165.856 90.138 165.586 90.0154 165.222 89.9325L163.929 89.6491C163.216 89.4867 162.689 89.2282 162.348 88.8736C162.01 88.5189 161.841 88.0698 161.841 87.5263C161.841 87.0755 161.967 86.6811 162.219 86.343C162.471 86.005 162.819 85.7415 163.263 85.5526C163.707 85.3603 164.216 85.2642 164.789 85.2642C165.614 85.2642 166.264 85.4432 166.738 85.8011C167.212 86.1558 167.525 86.6314 167.678 87.228ZM46.0601 114L43.8129 106.364H45.3492L46.8456 111.972H46.9202L48.4216 106.364H49.9578L51.4493 111.947H51.5239L53.0104 106.364H54.5466L52.3044 114H50.7881L49.2369 108.487H49.1226L47.5715 114H46.0601ZM55.9573 114V106.364H57.4438V114H55.9573ZM56.708 105.185C56.4495 105.185 56.2274 105.099 56.0418 104.927C55.8595 104.751 55.7684 104.542 55.7684 104.3C55.7684 104.055 55.8595 103.846 56.0418 103.674C56.2274 103.498 56.4495 103.411 56.708 103.411C56.9665 103.411 57.1869 103.498 57.3692 103.674C57.5548 103.846 57.6476 104.055 57.6476 104.3C57.6476 104.542 57.5548 104.751 57.3692 104.927C57.1869 105.099 56.9665 105.185 56.708 105.185ZM60.9301 103.818V114H59.4436V103.818H60.9301ZM64.4165 103.818V114H62.93V103.818H64.4165ZM72.3437 114.169C71.8598 114.169 71.4223 114.08 71.0312 113.901C70.6401 113.718 70.3302 113.455 70.1015 113.11C69.8761 112.765 69.7634 112.343 69.7634 111.842C69.7634 111.411 69.8463 111.057 70.012 110.778C70.1777 110.5 70.4014 110.28 70.6831 110.117C70.9649 109.955 71.2797 109.832 71.6278 109.749C71.9758 109.666 72.3304 109.603 72.6917 109.56C73.1491 109.507 73.5203 109.464 73.8053 109.431C74.0903 109.395 74.2975 109.337 74.4268 109.257C74.556 109.178 74.6206 109.048 74.6206 108.869V108.835C74.6206 108.4 74.498 108.064 74.2528 107.825C74.0108 107.587 73.6495 107.467 73.1689 107.467C72.6685 107.467 72.2741 107.578 71.9857 107.8C71.7007 108.019 71.5035 108.263 71.3941 108.531L69.9971 108.213C70.1628 107.749 70.4047 107.375 70.7229 107.089C71.0444 106.801 71.414 106.592 71.8316 106.463C72.2492 106.33 72.6884 106.264 73.1491 106.264C73.454 106.264 73.7771 106.301 74.1185 106.374C74.4632 106.443 74.7847 106.572 75.083 106.761C75.3846 106.95 75.6315 107.22 75.8238 107.572C76.016 107.92 76.1121 108.372 76.1121 108.929V114H74.6604V112.956H74.6008C74.5046 113.148 74.3605 113.337 74.1682 113.523C73.976 113.708 73.7291 113.862 73.4275 113.985C73.1259 114.108 72.7646 114.169 72.3437 114.169ZM72.6668 112.976C73.0778 112.976 73.4291 112.895 73.7208 112.732C74.0158 112.57 74.2395 112.358 74.392 112.096C74.5477 111.831 74.6256 111.547 74.6256 111.246V110.261C74.5726 110.314 74.4698 110.364 74.3174 110.411C74.1682 110.454 73.9975 110.492 73.8053 110.525C73.6131 110.555 73.4258 110.583 73.2435 110.609C73.0612 110.633 72.9088 110.652 72.7861 110.669C72.4978 110.705 72.2343 110.767 71.9956 110.853C71.7603 110.939 71.5714 111.063 71.4289 111.226C71.2897 111.385 71.2201 111.597 71.2201 111.862C71.2201 112.23 71.356 112.509 71.6278 112.697C71.8995 112.883 72.2459 112.976 72.6668 112.976ZM78.0921 116.864V106.364H79.5438V107.602H79.6681C79.7542 107.442 79.8785 107.259 80.0409 107.05C80.2033 106.841 80.4287 106.659 80.7171 106.503C81.0054 106.344 81.3866 106.264 81.8605 106.264C82.477 106.264 83.0272 106.42 83.5111 106.732C83.995 107.043 84.3745 107.492 84.6496 108.079C84.928 108.665 85.0672 109.371 85.0672 110.197C85.0672 111.022 84.9297 111.73 84.6546 112.32C84.3795 112.906 84.0016 113.359 83.521 113.677C83.0405 113.992 82.4919 114.149 81.8754 114.149C81.4114 114.149 81.0319 114.071 80.7369 113.915C80.4453 113.76 80.2166 113.577 80.0509 113.369C79.8852 113.16 79.7575 112.974 79.6681 112.812H79.5786V116.864H78.0921ZM79.5487 110.182C79.5487 110.719 79.6266 111.189 79.7824 111.594C79.9382 111.998 80.1636 112.315 80.4585 112.543C80.7535 112.769 81.1148 112.881 81.5423 112.881C81.9865 112.881 82.3577 112.764 82.656 112.528C82.9543 112.29 83.1797 111.967 83.3321 111.559C83.4879 111.151 83.5658 110.692 83.5658 110.182C83.5658 109.678 83.4896 109.226 83.3371 108.825C83.1879 108.424 82.9626 108.107 82.661 107.875C82.3627 107.643 81.9898 107.527 81.5423 107.527C81.1115 107.527 80.7469 107.638 80.4486 107.86C80.1536 108.082 79.9299 108.392 79.7774 108.79C79.625 109.187 79.5487 109.652 79.5487 110.182ZM86.7327 116.864V106.364H88.1844V107.602H88.3087C88.3949 107.442 88.5191 107.259 88.6816 107.05C88.844 106.841 89.0693 106.659 89.3577 106.503C89.646 106.344 90.0272 106.264 90.5012 106.264C91.1176 106.264 91.6678 106.42 92.1517 106.732C92.6356 107.043 93.0151 107.492 93.2902 108.079C93.5686 108.665 93.7078 109.371 93.7078 110.197C93.7078 111.022 93.5703 111.73 93.2952 112.32C93.0201 112.906 92.6423 113.359 92.1617 113.677C91.6811 113.992 91.1325 114.149 90.5161 114.149C90.0521 114.149 89.6726 114.071 89.3776 113.915C89.0859 113.76 88.8572 113.577 88.6915 113.369C88.5258 113.16 88.3982 112.974 88.3087 112.812H88.2192V116.864H86.7327ZM88.1894 110.182C88.1894 110.719 88.2673 111.189 88.423 111.594C88.5788 111.998 88.8042 112.315 89.0992 112.543C89.3941 112.769 89.7554 112.881 90.183 112.881C90.6271 112.881 90.9983 112.764 91.2966 112.528C91.5949 112.29 91.8203 111.967 91.9727 111.559C92.1285 111.151 92.2064 110.692 92.2064 110.182C92.2064 109.678 92.1302 109.226 91.9777 108.825C91.8286 108.424 91.6032 108.107 91.3016 107.875C91.0033 107.643 90.6304 107.527 90.183 107.527C89.7521 107.527 89.3875 107.638 89.0892 107.86C88.7942 108.082 88.5705 108.392 88.4181 108.79C88.2656 109.187 88.1894 109.652 88.1894 110.182ZM98.6645 114.154C97.9121 114.154 97.2642 113.993 96.7206 113.672C96.1804 113.347 95.7628 112.891 95.4678 112.305C95.1761 111.715 95.0303 111.024 95.0303 110.232C95.0303 109.449 95.1761 108.76 95.4678 108.163C95.7628 107.567 96.1737 107.101 96.7007 106.766C97.231 106.432 97.8508 106.264 98.5601 106.264C98.991 106.264 99.4086 106.335 99.8129 106.478C100.217 106.621 100.58 106.844 100.902 107.149C101.223 107.454 101.477 107.85 101.662 108.337C101.848 108.821 101.941 109.41 101.941 110.102V110.629H95.8705V109.516H100.484C100.484 109.125 100.405 108.778 100.245 108.477C100.086 108.172 99.8627 107.931 99.5743 107.756C99.2893 107.58 98.9545 107.492 98.57 107.492C98.1524 107.492 97.7878 107.595 97.4763 107.8C97.1681 108.003 96.9294 108.268 96.7604 108.596C96.5947 108.921 96.5118 109.274 96.5118 109.655V110.525C96.5118 111.035 96.6013 111.469 96.7803 111.827C96.9626 112.185 97.2161 112.459 97.5409 112.648C97.8657 112.833 98.2452 112.926 98.6794 112.926C98.9611 112.926 99.218 112.886 99.45 112.807C99.682 112.724 99.8825 112.601 100.052 112.439C100.221 112.277 100.35 112.076 100.439 111.837L101.846 112.091C101.734 112.505 101.531 112.868 101.24 113.18C100.951 113.488 100.589 113.728 100.151 113.901C99.7168 114.07 99.2213 114.154 98.6645 114.154ZM105.812 114.169C105.329 114.169 104.891 114.08 104.5 113.901C104.109 113.718 103.799 113.455 103.57 113.11C103.345 112.765 103.232 112.343 103.232 111.842C103.232 111.411 103.315 111.057 103.481 110.778C103.646 110.5 103.87 110.28 104.152 110.117C104.434 109.955 104.748 109.832 105.097 109.749C105.445 109.666 105.799 109.603 106.16 109.56C106.618 109.507 106.989 109.464 107.274 109.431C107.559 109.395 107.766 109.337 107.896 109.257C108.025 109.178 108.089 109.048 108.089 108.869V108.835C108.089 108.4 107.967 108.064 107.722 107.825C107.48 107.587 107.118 107.467 106.638 107.467C106.137 107.467 105.743 107.578 105.454 107.8C105.169 108.019 104.972 108.263 104.863 108.531L103.466 108.213C103.632 107.749 103.873 107.375 104.192 107.089C104.513 106.801 104.883 106.592 105.3 106.463C105.718 106.33 106.157 106.264 106.618 106.264C106.923 106.264 107.246 106.301 107.587 106.374C107.932 106.443 108.253 106.572 108.552 106.761C108.853 106.95 109.1 107.22 109.293 107.572C109.485 107.92 109.581 108.372 109.581 108.929V114H108.129V112.956H108.07C107.973 113.148 107.829 113.337 107.637 113.523C107.445 113.708 107.198 113.862 106.896 113.985C106.595 114.108 106.233 114.169 105.812 114.169ZM106.136 112.976C106.547 112.976 106.898 112.895 107.19 112.732C107.485 112.57 107.708 112.358 107.861 112.096C108.016 111.831 108.094 111.547 108.094 111.246V110.261C108.041 110.314 107.939 110.364 107.786 110.411C107.637 110.454 107.466 110.492 107.274 110.525C107.082 110.555 106.895 110.583 106.712 110.609C106.53 110.633 106.378 110.652 106.255 110.669C105.967 110.705 105.703 110.767 105.464 110.853C105.229 110.939 105.04 111.063 104.898 111.226C104.758 111.385 104.689 111.597 104.689 111.862C104.689 112.23 104.825 112.509 105.097 112.697C105.368 112.883 105.715 112.976 106.136 112.976ZM111.561 114V106.364H112.998V107.577H113.077C113.216 107.166 113.462 106.843 113.813 106.607C114.168 106.369 114.569 106.249 115.016 106.249C115.109 106.249 115.218 106.253 115.344 106.259C115.473 106.266 115.575 106.274 115.647 106.284V107.706C115.588 107.689 115.482 107.671 115.329 107.651C115.177 107.628 115.024 107.616 114.872 107.616C114.521 107.616 114.207 107.691 113.932 107.84C113.66 107.986 113.445 108.19 113.286 108.452C113.127 108.71 113.047 109.005 113.047 109.337V114H111.561ZM122.125 109.466V114H120.639V103.818H122.106V107.607H122.2C122.379 107.196 122.652 106.869 123.02 106.627C123.388 106.385 123.869 106.264 124.462 106.264C124.986 106.264 125.443 106.372 125.834 106.587C126.229 106.803 126.534 107.124 126.749 107.552C126.968 107.976 127.077 108.506 127.077 109.143V114H125.591V109.322C125.591 108.762 125.446 108.327 125.158 108.019C124.87 107.708 124.469 107.552 123.955 107.552C123.604 107.552 123.289 107.626 123.01 107.776C122.735 107.925 122.518 108.143 122.359 108.432C122.203 108.717 122.125 109.062 122.125 109.466ZM132.352 114.154C131.6 114.154 130.952 113.993 130.408 113.672C129.868 113.347 129.45 112.891 129.155 112.305C128.864 111.715 128.718 111.024 128.718 110.232C128.718 109.449 128.864 108.76 129.155 108.163C129.45 107.567 129.861 107.101 130.388 106.766C130.919 106.432 131.538 106.264 132.248 106.264C132.678 106.264 133.096 106.335 133.5 106.478C133.905 106.621 134.268 106.844 134.589 107.149C134.911 107.454 135.164 107.85 135.35 108.337C135.535 108.821 135.628 109.41 135.628 110.102V110.629H129.558V109.516H134.172C134.172 109.125 134.092 108.778 133.933 108.477C133.774 108.172 133.55 107.931 133.262 107.756C132.977 107.58 132.642 107.492 132.258 107.492C131.84 107.492 131.475 107.595 131.164 107.8C130.856 108.003 130.617 108.268 130.448 108.596C130.282 108.921 130.199 109.274 130.199 109.655V110.525C130.199 111.035 130.289 111.469 130.468 111.827C130.65 112.185 130.904 112.459 131.228 112.648C131.553 112.833 131.933 112.926 132.367 112.926C132.649 112.926 132.906 112.886 133.138 112.807C133.37 112.724 133.57 112.601 133.739 112.439C133.908 112.277 134.037 112.076 134.127 111.837L135.534 112.091C135.421 112.505 135.219 112.868 134.927 113.18C134.639 113.488 134.276 113.728 133.839 113.901C133.404 114.07 132.909 114.154 132.352 114.154ZM137.278 114V106.364H138.714V107.577H138.794C138.933 107.166 139.178 106.843 139.53 106.607C139.884 106.369 140.285 106.249 140.733 106.249C140.826 106.249 140.935 106.253 141.061 106.259C141.19 106.266 141.291 106.274 141.364 106.284V107.706C141.305 107.689 141.199 107.671 141.046 107.651C140.894 107.628 140.741 107.616 140.589 107.616C140.237 107.616 139.924 107.691 139.649 107.84C139.377 107.986 139.162 108.19 139.003 108.452C138.844 108.71 138.764 109.005 138.764 109.337V114H137.278ZM145.668 114.154C144.916 114.154 144.268 113.993 143.725 113.672C143.184 113.347 142.767 112.891 142.472 112.305C142.18 111.715 142.034 111.024 142.034 110.232C142.034 109.449 142.18 108.76 142.472 108.163C142.767 107.567 143.178 107.101 143.705 106.766C144.235 106.432 144.855 106.264 145.564 106.264C145.995 106.264 146.412 106.335 146.817 106.478C147.221 106.621 147.584 106.844 147.906 107.149C148.227 107.454 148.481 107.85 148.666 108.337C148.852 108.821 148.945 109.41 148.945 110.102V110.629H142.874V109.516H147.488C147.488 109.125 147.408 108.778 147.249 108.477C147.09 108.172 146.867 107.931 146.578 107.756C146.293 107.58 145.958 107.492 145.574 107.492C145.156 107.492 144.792 107.595 144.48 107.8C144.172 108.003 143.933 108.268 143.764 108.596C143.599 108.921 143.516 109.274 143.516 109.655V110.525C143.516 111.035 143.605 111.469 143.784 111.827C143.966 112.185 144.22 112.459 144.545 112.648C144.87 112.833 145.249 112.926 145.683 112.926C145.965 112.926 146.222 112.886 146.454 112.807C146.686 112.724 146.886 112.601 147.055 112.439C147.225 112.277 147.354 112.076 147.443 111.837L148.85 112.091C148.738 112.505 148.535 112.868 148.244 113.18C147.955 113.488 147.592 113.728 147.155 113.901C146.721 114.07 146.225 114.154 145.668 114.154Z" fill="#7D7C78"/>
<path d="M85 25.5L94 16.5L85 7.5" stroke="#A5A4A1" stroke-width="3" stroke-linecap="round" stroke-linejoin="round"/>
<path d="M97 28.5H109" stroke="#A5A4A1" stroke-width="3" stroke-linecap="round" stroke-linejoin="round"/>
</svg>
