<svg width="17" height="5" viewBox="0 0 17 5" fill="none" xmlns="http://www.w3.org/2000/svg">
<path d="M8.5 3.375C8.98325 3.375 9.375 2.98325 9.375 2.5C9.375 2.01675 8.98325 1.625 8.5 1.625C8.01675 1.625 7.625 2.01675 7.625 2.5C7.625 2.98325 8.01675 3.375 8.5 3.375Z" fill="#A5A4A1" stroke="#A5A4A1" stroke-width="1.5" stroke-linecap="round" stroke-linejoin="round"/>
<path d="M14.625 3.375C15.1082 3.375 15.5 2.98325 15.5 2.5C15.5 2.01675 15.1082 1.625 14.625 1.625C14.1418 1.625 13.75 2.01675 13.75 2.5C13.75 2.98325 14.1418 3.375 14.625 3.375Z" fill="#A5A4A1" stroke="#A5A4A1" stroke-width="1.5" stroke-linecap="round" stroke-linejoin="round"/>
<path d="M2.375 3.375C2.85825 3.375 3.25 2.98325 3.25 2.5C3.25 2.01675 2.85825 1.625 2.375 1.625C1.89175 1.625 1.5 2.01675 1.5 2.5C1.5 2.98325 1.89175 3.375 2.375 3.375Z" fill="#A5A4A1" stroke="#A5A4A1" stroke-width="1.5" stroke-linecap="round" stroke-linejoin="round"/>
</svg>
