<svg width="21" height="21" viewBox="0 0 21 21" fill="none" xmlns="http://www.w3.org/2000/svg">
<path d="M14.875 2.62502C15.1048 2.39521 15.3776 2.21291 15.6779 2.08853C15.9782 1.96416 16.3 1.90015 16.625 1.90015C16.95 1.90015 17.2718 1.96416 17.5721 2.08853C17.8724 2.21291 18.1452 2.39521 18.375 2.62502C18.6048 2.85483 18.7871 3.12766 18.9115 3.42793C19.0359 3.72819 19.0999 4.05001 19.0999 4.37502C19.0999 4.70002 19.0359 5.02185 18.9115 5.32211C18.7871 5.62238 18.6048 5.89521 18.375 6.12502L6.5625 17.9375L1.75 19.25L3.0625 14.4375L14.875 2.62502Z" stroke="#373530" stroke-width="2" stroke-linecap="round" stroke-linejoin="round"/>
<path d="M3.6521 13.6957L7.30427 17.3479" stroke="#373530" stroke-width="2"/>
</svg>
