<svg width="228" height="228" viewBox="0 0 228 228" fill="none" xmlns="http://www.w3.org/2000/svg">
<rect width="228" height="228" fill="white"/>
<path d="M139.833 67.5C141.19 66.143 142.801 65.0666 144.574 64.3322C146.347 63.5978 148.248 63.2198 150.167 63.2198C152.086 63.2198 153.986 63.5978 155.759 64.3322C157.532 65.0666 159.143 66.143 160.5 67.5C161.857 68.857 162.933 70.468 163.668 72.241C164.402 74.014 164.78 75.9143 164.78 77.8333C164.78 79.7524 164.402 81.6527 163.668 83.4257C162.933 85.1987 161.857 86.8097 160.5 88.1667L90.75 157.917L62.3334 165.667L70.0834 137.25L139.833 67.5Z" fill="white" stroke="#4F4F4F" stroke-width="7" stroke-linecap="round" stroke-linejoin="round"/>
<path d="M16.2887 182.825C23.6753 178.252 31.8762 172.001 41.0282 172.001C51.6762 172.001 59.6613 174.526 69.032 179.732C77.0512 184.187 88.2224 188.065 97.4654 188.237C102.794 188.335 106.934 186.582 111.725 184.371C118.148 181.407 124.633 178.55 131.01 175.48C136.989 172.601 142.299 168.654 148.491 166.246C156.429 163.159 165.34 164.518 173.574 165.086C180.595 165.57 187.328 166.842 193.718 169.682C195.082 170.288 196.882 170.974 197.97 172.001C198.456 172.46 200.289 175.144 200.289 174.321" stroke="#CCCCCC" stroke-width="5" stroke-linecap="round"/>
</svg>
